<svg width="146" height="27" viewBox="0 0 146 27" fill="none" xmlns="http://www.w3.org/2000/svg">
<path d="M124.417 10.7283C124.417 16.4719 127.351 19.3436 133.217 19.3436C138.959 19.3436 141.831 16.4719 141.831 10.7283C141.831 5.06407 138.959 2.23196 133.217 2.23196C127.351 2.23196 124.417 5.06407 124.417 10.7283ZM121.137 10.8176C121.137 3.60585 125.163 0 133.217 0C141.147 0 145.112 3.60585 145.112 10.8176C145.112 16.7496 142.392 20.2513 136.952 21.3227L140.855 25.3402L138.432 26.9472L133.217 21.5756C125.163 21.5756 121.137 17.9896 121.137 10.8176Z" fill="white"/>
<path d="M115.736 0.148438V21.4265H112.623V0.148438H115.736Z" fill="white"/>
<path d="M90.1465 21.4265V0.148438H100.409C104.986 0.148438 107.274 1.84969 107.274 5.25218C107.274 8.01981 105.036 10.0683 100.561 11.3975L108.822 21.4265H104.716L97.0613 11.8588V10.0583C101.66 9.41355 103.959 7.85118 103.959 5.37122C103.959 3.4071 102.681 2.42504 100.123 2.42504H93.259V21.4265H90.1465Z" fill="white"/>
<path d="M86.4281 0.148438V2.3804H73.8098V9.52267H85.8393V11.7546H73.8098V21.4265H70.6973V0.148438H86.4281Z" fill="white"/>
<path d="M44.1816 21.4265V0.148438H47.2942L62.0156 17.2899V0.148438H64.9598V21.4265H61.8473L47.1259 4.13621V21.4265H44.1816Z" fill="white"/>
<path d="M20.2088 21.4265H16.9785L27.191 0.148438H30.64L40.9029 21.4265H37.4539L34.3414 14.7306H26.3834L27.2414 12.4986H33.2982L28.8061 2.85655L20.2088 21.4265Z" fill="white"/>
<path d="M3.11252 0.148438V19.1945H15.6972V21.4265H0V0.148438H3.11252Z" fill="white"/>
</svg>
